<svg width="248" height="40" viewBox="0 0 248 40" fill="none" xmlns="http://www.w3.org/2000/svg">
<path d="M34.1422 5.85781C30.3647 2.08031 25.3422 0 20 0C14.6578 0 9.63531 2.08031 5.85781 5.85781C2.08031 9.63531 0 14.6578 0 20C0 25.3422 2.08039 30.3646 5.85781 34.1422C9.63523 37.9198 14.6578 40 20 40C25.3422 40 30.3647 37.9197 34.1422 34.1422C37.9197 30.3647 40 25.3422 40 20C40 14.6578 37.9196 9.63539 34.1422 5.85781Z" fill="#33CC95"/>
<g clip-path="url(#clip0_35212_417)">
<path d="M20.5714 8V33.1429" stroke="white" stroke-width="2" stroke-linecap="round" stroke-linejoin="round"/>
<path d="M26.2858 12.5714H17.7144C16.6535 12.5714 15.6361 12.9928 14.8859 13.743C14.1358 14.4931 13.7144 15.5105 13.7144 16.5714C13.7144 17.6323 14.1358 18.6497 14.8859 19.3998C15.6361 20.15 16.6535 20.5714 17.7144 20.5714H23.4286C24.4895 20.5714 25.5069 20.9928 26.2571 21.743C27.0072 22.4931 27.4286 23.5105 27.4286 24.5714C27.4286 25.6323 27.0072 26.6497 26.2571 27.3998C25.5069 28.15 24.4895 28.5714 23.4286 28.5714H13.7144" stroke="white" stroke-width="2" stroke-linecap="round" stroke-linejoin="round"/>
</g>
<path d="M68.6333 25.1256C68.2845 25.6364 67.8897 26.1134 67.4498 26.5552C67.0115 26.9977 66.4945 27.38 65.8989 27.7029C65.3049 28.0258 64.6112 28.2805 63.8186 28.4662C63.0253 28.654 62.1027 28.748 61.05 28.748C57.9856 28.748 55.7106 27.9282 54.2267 26.288C52.742 24.6486 52 22.1835 52 18.8936C52 15.5868 52.7443 13.118 54.2329 11.4874C55.7215 9.85525 57.9451 9.03918 60.9037 9.03918C61.9189 9.03918 62.8174 9.12872 63.6006 9.30631C64.3831 9.48244 65.0744 9.72609 65.6747 10.0372C66.2742 10.3469 66.7896 10.7139 67.2194 11.1381C67.6492 11.5608 68.0182 12.018 68.3281 12.5089L65.6311 14.3553C65.4194 14.0464 65.1842 13.7411 64.9273 13.4395C64.6719 13.1386 64.3621 12.8722 63.9992 12.641C63.638 12.4084 63.2098 12.2212 62.7162 12.0803C62.2241 11.9394 61.6394 11.869 60.9628 11.869C59.0772 11.869 57.6944 12.4575 56.8146 13.6332C55.9341 14.8074 55.4942 16.5613 55.4942 18.8936C55.4942 20.1426 55.6125 21.2089 55.8492 22.0932C56.0859 22.9761 56.4355 23.7019 56.8987 24.2714C57.3635 24.8409 57.9397 25.2577 58.6271 25.5219C59.3138 25.7861 60.1017 25.9182 60.9909 25.9182C61.6573 25.9182 62.2412 25.8499 62.7442 25.7127C63.2487 25.5762 63.6909 25.392 64.0709 25.1608C64.4524 24.9282 64.7887 24.6552 65.0799 24.3418C65.3703 24.027 65.6412 23.6916 65.8927 23.335L68.6333 25.1256Z" fill="white"/>
<path d="M85.1062 21.2156C85.1062 22.3824 84.9723 23.4304 84.7045 24.3595C84.4382 25.2893 84.0232 26.0826 83.4588 26.7401C82.8935 27.3962 82.171 27.8989 81.2912 28.249C80.4107 28.599 79.3573 28.7744 78.1303 28.7744C76.8923 28.7744 75.8288 28.5968 74.9381 28.2431C74.049 27.8872 73.3218 27.3815 72.755 26.7255C72.1898 26.0701 71.7748 25.2775 71.5093 24.3477C71.2431 23.4186 71.1107 22.3744 71.1107 21.2156C71.1107 20.0414 71.2454 18.9861 71.5156 18.0482C71.7873 17.1088 72.2054 16.3089 72.7706 15.647C73.3374 14.9858 74.063 14.4801 74.9475 14.1293C75.8319 13.7793 76.8923 13.6039 78.1303 13.6039C79.3573 13.6039 80.4107 13.7793 81.2912 14.1293C82.171 14.4801 82.8935 14.9858 83.4588 15.647C84.0232 16.3089 84.4382 17.1088 84.7045 18.0482C84.9723 18.9861 85.1062 20.0414 85.1062 21.2156ZM81.8705 21.2156C81.8705 19.513 81.5777 18.2471 80.9923 17.4171C80.4083 16.5878 79.4546 16.1724 78.1303 16.1724C76.8051 16.1724 75.8413 16.5878 75.2371 17.4171C74.6329 18.2471 74.3309 19.513 74.3309 21.2156C74.3309 22.8756 74.6275 24.1246 75.2215 24.9642C75.8171 25.8023 76.7865 26.2206 78.1303 26.2206C79.4336 26.2206 80.3827 25.8023 80.9767 24.9642C81.5723 24.1246 81.8705 22.8756 81.8705 21.2156Z" fill="white"/>
<path d="M98.5884 28.3517V20.1793C98.5884 19.4675 98.5642 18.8635 98.5167 18.3682C98.4685 17.8713 98.3649 17.4684 98.2053 17.1587C98.0449 16.8476 97.8199 16.6245 97.5295 16.4895C97.2407 16.353 96.8545 16.284 96.371 16.284C96.051 16.284 95.7092 16.3441 95.3464 16.463C94.9852 16.5805 94.6185 16.7419 94.2471 16.9474C93.8749 17.1514 93.5004 17.3877 93.1228 17.6578C92.7444 17.9264 92.3824 18.206 92.036 18.4973V28.3517H88.9186V14.0148H92.036V16.008C92.3637 15.6991 92.7304 15.3989 93.1353 15.1068C93.5417 14.8155 93.9699 14.5579 94.4184 14.3348C94.8684 14.1117 95.3324 13.9349 95.8104 13.8035C96.29 13.6707 96.7712 13.6039 97.2555 13.6039C98.1064 13.6039 98.8165 13.7184 99.3856 13.9473C99.9563 14.1748 100.413 14.5095 100.756 14.9513C101.1 15.3916 101.345 15.9339 101.491 16.5775C101.636 17.2197 101.709 17.9557 101.709 18.785V28.3517H98.5884Z" fill="white"/>
<path d="M114.162 28.3517C113.727 28.4787 113.237 28.5807 112.692 28.657C112.145 28.7348 111.625 28.7744 111.131 28.7744C110.301 28.7744 109.593 28.6805 109.008 28.4926C108.422 28.3069 107.943 28.0215 107.572 27.6354C107.2 27.248 106.927 26.7541 106.753 26.153C106.578 25.5505 106.491 24.8394 106.491 24.0189V16.4043H104.448V14.0148H106.491V10.0226H109.609V14.0148H113.293V16.4043H109.609V23.5669C109.609 24.0776 109.64 24.5092 109.702 24.8614C109.766 25.2122 109.87 25.497 110.013 25.7156C110.158 25.9329 110.35 26.0929 110.586 26.1941C110.825 26.2939 111.114 26.3438 111.452 26.3438C111.79 26.3438 112.147 26.3049 112.524 26.2264C112.901 26.1486 113.23 26.0547 113.511 25.9446L114.162 28.3517Z" fill="white"/>
<path d="M125.5 16.8975C125.346 16.8432 125.146 16.7933 124.899 16.7478C124.652 16.703 124.399 16.6803 124.139 16.6803C123.713 16.6803 123.312 16.7353 122.934 16.8446C122.558 16.9525 122.198 17.1 121.853 17.2879C121.511 17.4743 121.179 17.6952 120.86 17.9513C120.542 18.206 120.229 18.4738 119.919 18.7556V28.3517H116.802V14.0148H119.919V16.2018C120.247 15.873 120.584 15.5633 120.932 15.2712C121.28 14.9799 121.646 14.7245 122.028 14.5051C122.409 14.2864 122.808 14.1132 123.224 13.9855C123.641 13.8585 124.081 13.7947 124.544 13.7947C124.901 13.7947 125.208 13.8204 125.463 13.871C125.72 13.9202 125.941 13.9906 126.126 14.0824L125.5 16.8975Z" fill="white"/>
<path d="M141.975 21.2156C141.975 22.3824 141.841 23.4304 141.574 24.3595C141.307 25.2893 140.892 26.0826 140.328 26.7401C139.763 27.3962 139.04 27.8989 138.16 28.249C137.28 28.599 136.226 28.7744 134.999 28.7744C133.761 28.7744 132.698 28.5968 131.807 28.2431C130.918 27.8872 130.191 27.3815 129.624 26.7255C129.059 26.0701 128.644 25.2775 128.378 24.3477C128.112 23.4186 127.98 22.3744 127.98 21.2156C127.98 20.0414 128.115 18.9861 128.385 18.0482C128.656 17.1088 129.075 16.3089 129.64 15.647C130.207 14.9858 130.932 14.4801 131.817 14.1293C132.701 13.7793 133.761 13.6039 134.999 13.6039C136.226 13.6039 137.28 13.7793 138.16 14.1293C139.04 14.4801 139.763 14.9858 140.328 15.647C140.892 16.3089 141.307 17.1088 141.574 18.0482C141.841 18.9861 141.975 20.0414 141.975 21.2156ZM138.74 21.2156C138.74 19.513 138.447 18.2471 137.861 17.4171C137.277 16.5878 136.324 16.1724 134.999 16.1724C133.674 16.1724 132.71 16.5878 132.106 17.4171C131.502 18.2471 131.2 19.513 131.2 21.2156C131.2 22.8756 131.497 24.1246 132.091 24.9642C132.686 25.8023 133.656 26.2206 134.999 26.2206C136.303 26.2206 137.252 25.8023 137.846 24.9642C138.441 24.1246 138.74 22.8756 138.74 21.2156Z" fill="white"/>
<path d="M145.844 28.3517V8H148.961V28.3517H145.844Z" fill="white"/>
<path d="M176.846 28.3516V14.1645L171.683 23.3613H169.655L164.52 14.1645V28.3516H161.287V9.43542H165.448L170.727 19.0843L176.049 9.43542H180.11V28.3516H176.846Z" fill="white"/>
<path d="M198.018 21.2156C198.018 22.3824 197.884 23.4304 197.616 24.3595C197.35 25.2893 196.935 26.0826 196.371 26.7401C195.805 27.3962 195.083 27.8989 194.203 28.249C193.322 28.599 192.269 28.7744 191.042 28.7744C189.804 28.7744 188.741 28.5968 187.85 28.2431C186.961 27.8872 186.234 27.3815 185.667 26.7255C185.102 26.0701 184.687 25.2775 184.421 24.3477C184.155 23.4186 184.022 22.3744 184.022 21.2156C184.022 20.0414 184.157 18.9861 184.427 18.0482C184.699 17.1088 185.117 16.3089 185.682 15.647C186.249 14.9858 186.975 14.4801 187.859 14.1293C188.744 13.7793 189.804 13.6039 191.042 13.6039C192.269 13.6039 193.322 13.7793 194.203 14.1293C195.083 14.4801 195.805 14.9858 196.371 15.647C196.935 16.3089 197.35 17.1088 197.616 18.0482C197.884 18.9861 198.018 20.0414 198.018 21.2156ZM194.782 21.2156C194.782 19.513 194.489 18.2471 193.904 17.4171C193.32 16.5878 192.366 16.1724 191.042 16.1724C189.717 16.1724 188.753 16.5878 188.149 17.4171C187.545 18.2471 187.243 19.513 187.243 21.2156C187.243 22.8756 187.539 24.1246 188.133 24.9642C188.729 25.8023 189.698 26.2206 191.042 26.2206C192.345 26.2206 193.294 25.8023 193.888 24.9642C194.484 24.1246 194.782 22.8756 194.782 21.2156Z" fill="white"/>
<path d="M211.5 28.3517V20.1793C211.5 19.4675 211.476 18.8635 211.428 18.3682C211.38 17.8713 211.277 17.4684 211.117 17.1587C210.957 16.8476 210.732 16.6245 210.441 16.4895C210.152 16.353 209.766 16.284 209.283 16.284C208.963 16.284 208.621 16.3441 208.258 16.463C207.897 16.5805 207.53 16.7419 207.159 16.9474C206.787 17.1514 206.412 17.3877 206.034 17.6578C205.656 17.9264 205.294 18.206 204.948 18.4973V28.3517H201.83V14.0148H204.948V16.008C205.275 15.6991 205.642 15.3989 206.047 15.1068C206.453 14.8155 206.882 14.5579 207.33 14.3348C207.78 14.1117 208.244 13.9349 208.722 13.8035C209.202 13.6707 209.683 13.6039 210.167 13.6039C211.018 13.6039 211.728 13.7184 212.297 13.9473C212.868 14.1748 213.325 14.5095 213.668 14.9513C214.012 15.3916 214.257 15.9339 214.402 16.5775C214.547 17.2197 214.62 17.9557 214.62 18.785V28.3517H211.5Z" fill="white"/>
<path d="M221.52 21.8056C221.531 22.5241 221.611 23.1589 221.76 23.7107C221.91 24.2626 222.143 24.7235 222.461 25.0933C222.78 25.4617 223.194 25.7413 223.7 25.9329C224.209 26.1252 224.836 26.2206 225.581 26.2206C226.277 26.2206 226.893 26.109 227.428 25.8859C227.965 25.6614 228.462 25.2805 228.917 24.744L231.309 26.2734C231.017 26.6844 230.693 27.0447 230.337 27.3537C229.98 27.6633 229.563 27.9231 229.088 28.1345C228.615 28.3444 228.076 28.5022 227.472 28.61C226.868 28.7194 226.179 28.7744 225.407 28.7744C222.979 28.7744 221.188 28.1448 220.032 26.884C218.877 25.6217 218.3 23.7599 218.3 21.2978C218.3 20.1412 218.423 19.0918 218.671 18.148C218.918 17.205 219.314 16.397 219.861 15.7233C220.406 15.0481 221.119 14.5271 221.997 14.1587C222.877 13.7888 223.956 13.6039 225.233 13.6039C226.364 13.6039 227.329 13.7639 228.126 14.0824C228.923 14.4016 229.572 14.8529 230.075 15.4356C230.577 16.019 230.945 16.7206 231.178 17.5404C231.41 18.3608 231.527 19.2664 231.527 20.2586V21.8056H221.52ZM228.437 19.6451C228.437 18.4518 228.171 17.5426 227.64 16.918C227.108 16.2942 226.271 15.9816 225.13 15.9816C224.551 15.9816 224.055 16.0623 223.644 16.2223C223.233 16.3808 222.889 16.6157 222.614 16.9268C222.339 17.2365 222.119 17.6189 221.953 18.0746C221.789 18.5289 221.664 19.0521 221.58 19.6451H228.437Z" fill="white"/>
<path d="M233.453 30.838C233.791 30.9671 234.151 31.0648 234.533 31.1315C234.915 31.1998 235.285 31.2343 235.642 31.2343C235.932 31.2343 236.206 31.1858 236.461 31.0904C236.718 30.9965 236.966 30.8417 237.202 30.6266C237.439 30.4131 237.666 30.1335 237.884 29.7871C238.102 29.4407 238.317 29.0165 238.529 28.516L238.977 27.4915L233.453 14.0148H236.745L240.631 23.8398L244.589 14.0148H247.794L241.254 29.3908C240.915 30.1731 240.572 30.8409 240.223 31.3928C239.876 31.9447 239.485 32.3953 239.049 32.746C238.615 33.0961 238.127 33.3508 237.585 33.5093C237.045 33.6693 236.422 33.75 235.717 33.75C235.233 33.75 234.725 33.7133 234.194 33.6414C233.662 33.5687 233.179 33.4689 232.743 33.3419L233.453 30.838Z" fill="white"/>
<defs>
<clipPath id="clip0_35212_417">
<rect width="27.4286" height="27.4286" fill="white" transform="translate(6.85718 6.85718)"/>
</clipPath>
</defs>
</svg>
